<svg id="Слой_1" width="216" height="52" data-name="Слой 1" xmlns="http://www.w3.org/2000/svg" viewBox="0 0 215.06 52"><defs><style>.cls-1{fill:#00b2ff;}.cls-2{fill:#203c42;}.cls-3{fill:#788891;}</style></defs><path class="cls-1" d="M33,13.73a2.61,2.61,0,0,1,2.45,1.73h9a2.6,2.6,0,1,1,0,1.74h-9A2.6,2.6,0,1,1,33,13.73ZM46.9,17.2a.87.87,0,1,0-.87-.87A.87.87,0,0,0,46.9,17.2ZM33,17.2a.87.87,0,1,0-.86-.87A.87.87,0,0,0,33,17.2Z" transform="translate(-0.97 0.14)"/><path class="cls-1" d="M26.1,19.09V13.73a.86.86,0,0,1,.25-.61l3.47-3.47a.86.86,0,0,1,.61-.25h2.76a2.6,2.6,0,1,1,0,1.73h-2.4l-3,3v5a2.6,2.6,0,1,1-1.73,0Zm9.53-8a.87.87,0,1,0-.86-.87A.87.87,0,0,0,35.63,11.13ZM27,22.4a.87.87,0,1,0-.87-.87A.86.86,0,0,0,27,22.4Z" transform="translate(-0.97 0.14)"/><path class="cls-1" d="M10.5,22.4a2.55,2.55,0,0,1,1.11.26l1.49-1.49V12.86a.83.83,0,0,1,.26-.61L22,3.58a2.6,2.6,0,1,1,2.34,1.48,2.49,2.49,0,0,1-1.12-.26l-8.42,8.42v8.31a.86.86,0,0,1-.25.61l-1.74,1.74A2.6,2.6,0,1,1,7.9,25,2.6,2.6,0,0,1,10.5,22.4ZM24.37,3.33a.87.87,0,1,0-.87-.87A.86.86,0,0,0,24.37,3.33ZM10.5,25.86A.87.87,0,1,0,9.63,25,.86.86,0,0,0,10.5,25.86Z" transform="translate(-0.97 0.14)"/><path class="cls-1" d="M2.7,12.16V8.53A.86.86,0,0,1,3,7.92L9,1.85a.86.86,0,0,1,.61-.25h4.5a2.6,2.6,0,1,1,0,1.73H10L4.43,8.89v3.27a2.6,2.6,0,1,1-1.73,0ZM16.57,3.33a.87.87,0,1,0-.87-.87A.86.86,0,0,0,16.57,3.33Zm-13,12.13a.87.87,0,0,0,0-1.73.87.87,0,1,0,0,1.73Z" transform="translate(-0.97 0.14)"/><path class="cls-1" d="M14.83,46.82V34.37a2.59,2.59,0,1,1,3.31-3.31h9a2.59,2.59,0,0,1,4.88,0h5l3.22-3.22A2.55,2.55,0,0,1,40,26.73a2.6,2.6,0,1,1,2.6,2.6,2.63,2.63,0,0,1-1.12-.26L38,32.54a.83.83,0,0,1-.61.26H32a2.59,2.59,0,0,1-4.88,0h-9a2.6,2.6,0,0,1-1.57,1.57V46.82a2.6,2.6,0,1,1-1.74,0ZM42.57,27.6a.87.87,0,1,0-.87-.87A.86.86,0,0,0,42.57,27.6Zm-13,5.2a.87.87,0,1,0-.87-.87A.86.86,0,0,0,29.57,32.8ZM15.7,50.13a.87.87,0,1,0-.87-.87A.87.87,0,0,0,15.7,50.13Zm0-17.33a.87.87,0,1,0-.87-.87A.87.87,0,0,0,15.7,32.8Z" transform="translate(-0.97 0.14)"/><path class="cls-1" d="M19.17,17.36V14.6a.86.86,0,0,1,.25-.61L29.83,3.58a2.59,2.59,0,1,1,4.78-2h3.62a.87.87,0,0,1,.87.86V4.71l3.22,3.22a2.46,2.46,0,0,1,1.11-.27,2.6,2.6,0,1,1-2.6,2.6,2.46,2.46,0,0,1,.27-1.11L37.62,5.68a.87.87,0,0,1-.25-.62V3.33H34.61a2.59,2.59,0,0,1-2.44,1.73,2.49,2.49,0,0,1-1.12-.26L20.9,15v2.4a2.61,2.61,0,1,1-1.73,0Zm24.26-6.23a.87.87,0,1,0-.86-.87A.87.87,0,0,0,43.43,11.13ZM32.17,3.33a.87.87,0,1,0-.87-.87A.86.86,0,0,0,32.17,3.33ZM20,20.66a.87.87,0,1,0-.86-.86A.86.86,0,0,0,20,20.66Z" transform="translate(-0.97 0.14)"/><path class="cls-1" d="M21.77,24.13a2.6,2.6,0,0,1,2.44,1.73h10.2l5-4.94a.87.87,0,0,1,.61-.26h9.17l2.09-2.09V11.49L44.55,4.8a2.49,2.49,0,0,1-1.12.26A2.6,2.6,0,1,1,46,2.46a2.46,2.46,0,0,1-.26,1.12l6.94,6.94a.83.83,0,0,1,.26.61v7.8a.83.83,0,0,1-.26.61l-2.6,2.6a.83.83,0,0,1-.61.26H40.33l-4.95,4.94a.83.83,0,0,1-.61.26H24.21a2.6,2.6,0,1,1-2.44-3.47ZM43.43,1.6a.87.87,0,1,0,.87.86A.87.87,0,0,0,43.43,1.6Zm-21.66,26a.87.87,0,1,0-.87-.87A.86.86,0,0,0,21.77,27.6Z" transform="translate(-0.97 0.14)"/><path class="cls-1" d="M3.57,20.66a2.46,2.46,0,0,1,1.11.27L7.9,17.71v-5a2.61,2.61,0,1,1,1.73,0v5.35a.89.89,0,0,1-.25.62L5.91,22.15A2.56,2.56,0,0,1,4.43,25.7v.67l6.68,6.68a.83.83,0,0,1,.26.61v1a2.59,2.59,0,0,1,0,4.88v2a2.6,2.6,0,1,1-1.74,0v-2a2.59,2.59,0,0,1,0-4.88V34L3,27.34a.86.86,0,0,1-.25-.61v-1a2.59,2.59,0,0,1,.87-5Zm5.2-9.53a.87.87,0,1,0-.87-.87A.86.86,0,0,0,8.77,11.13Zm1.73,33.8a.87.87,0,1,0-.87-.87A.87.87,0,0,0,10.5,44.93Zm0-6.93a.87.87,0,1,0-.87-.87A.87.87,0,0,0,10.5,38ZM3.57,24.13a.87.87,0,1,0-.87-.87A.86.86,0,0,0,3.57,24.13Z" transform="translate(-0.97 0.14)"/><path class="cls-2" d="M78,24.34a2.19,2.19,0,0,0-.56-1.63,6.18,6.18,0,0,0-2-1.16,9.52,9.52,0,0,1-3.84-2.37A4.8,4.8,0,0,1,70.42,16,4.51,4.51,0,0,1,72,12.35a6.63,6.63,0,0,1,7-.67,4.78,4.78,0,0,1,2,1.94,5.85,5.85,0,0,1,.69,2.86H78.06a2.88,2.88,0,0,0-.54-1.89A1.84,1.84,0,0,0,76,13.93a1.92,1.92,0,0,0-1.46.56A2.07,2.07,0,0,0,74,16a1.87,1.87,0,0,0,.59,1.33,6.72,6.72,0,0,0,2.08,1.22,8.89,8.89,0,0,1,3.77,2.31,5.11,5.11,0,0,1,1.18,3.48,4.57,4.57,0,0,1-1.48,3.62,5.83,5.83,0,0,1-4,1.31A6.94,6.94,0,0,1,73,28.54a5.42,5.42,0,0,1-2.22-2A5.93,5.93,0,0,1,70,23.4h3.6a3.47,3.47,0,0,0,.59,2.24,2.47,2.47,0,0,0,2,.69C77.38,26.33,78,25.67,78,24.34Zm11.16,4.91A5.43,5.43,0,0,1,85,27.66a6.4,6.4,0,0,1-1.48-4.54V22.07a7.52,7.52,0,0,1,1.36-4.82,4.75,4.75,0,0,1,3.92-1.7,4.5,4.5,0,0,1,3.75,1.6,7.6,7.6,0,0,1,1.28,4.71v1.7H87a3.63,3.63,0,0,0,.64,2.15,2.21,2.21,0,0,0,1.77.67,3.9,3.9,0,0,0,2.9-1.18l1.35,2.08a4.37,4.37,0,0,1-1.84,1.43A6.37,6.37,0,0,1,89.17,29.25ZM87,21.14h3.46v-.31a3.82,3.82,0,0,0-.39-1.8,1.38,1.38,0,0,0-1.27-.61,1.45,1.45,0,0,0-1.32.65A4.48,4.48,0,0,0,87,21.14Zm15.32-2-1.15-.1a1.88,1.88,0,0,0-1.91,1.25V29H95.78V15.8H99l.1,1.43a2.5,2.5,0,0,1,2.26-1.68,2.54,2.54,0,0,1,.95.16Zm6.34,5,1.67-8.32h3.6L110.3,29H107L103.36,15.8H107ZM119.17,29H115.7V15.8h3.47Zm-3.63-16.63a1.79,1.79,0,0,1,.52-1.32,1.83,1.83,0,0,1,1.36-.51,1.86,1.86,0,0,1,1.37.51,1.79,1.79,0,0,1,.51,1.32,1.82,1.82,0,0,1-.51,1.32,1.79,1.79,0,0,1-1.37.52,1.77,1.77,0,0,1-1.88-1.84Zm11.08,14c1,0,1.51-.65,1.52-1.95h3.25a4.87,4.87,0,0,1-1.33,3.49,4.51,4.51,0,0,1-3.37,1.33,4.8,4.8,0,0,1-3.89-1.59A7.09,7.09,0,0,1,121.43,23v-1a7.41,7.41,0,0,1,1.32-4.75,4.75,4.75,0,0,1,3.92-1.64,4.45,4.45,0,0,1,3.44,1.36,5.46,5.46,0,0,1,1.28,3.82h-3.25a3.57,3.57,0,0,0-.36-1.71,1.27,1.27,0,0,0-1.18-.6,1.39,1.39,0,0,0-1.29.65,5.35,5.35,0,0,0-.41,2.48v1.34a11.53,11.53,0,0,0,.15,2.26,1.76,1.76,0,0,0,.53.94A1.65,1.65,0,0,0,126.62,26.38Zm12.06,2.87a5.4,5.4,0,0,1-4.15-1.59A6.36,6.36,0,0,1,133,23.12V22.07a7.52,7.52,0,0,1,1.36-4.82,4.76,4.76,0,0,1,3.92-1.7,4.5,4.5,0,0,1,3.75,1.6,7.53,7.53,0,0,1,1.28,4.71v1.7h-6.87a3.56,3.56,0,0,0,.65,2.15,2.19,2.19,0,0,0,1.77.67,3.88,3.88,0,0,0,2.89-1.18l1.35,2.08a4.37,4.37,0,0,1-1.84,1.43A6.33,6.33,0,0,1,138.68,29.25Zm-2.18-8.11H140v-.31a3.82,3.82,0,0,0-.39-1.8,1.38,1.38,0,0,0-1.27-.61,1.46,1.46,0,0,0-1.32.65A4.48,4.48,0,0,0,136.5,21.14ZM151.24,29V11.23h4.7a6.44,6.44,0,0,1,4.95,2,7.74,7.74,0,0,1,1.9,5.42v2.88A7.79,7.79,0,0,1,160.93,27a6.63,6.63,0,0,1-5.09,2Zm3.59-14.79V26h1.07a3,3,0,0,0,2.53-.94,5.71,5.71,0,0,0,.77-3.27V18.73a6.32,6.32,0,0,0-.7-3.47,2.81,2.81,0,0,0-2.37-1Zm15.71,15a5.4,5.4,0,0,1-4.15-1.59,6.36,6.36,0,0,1-1.49-4.54V22.07a7.52,7.52,0,0,1,1.36-4.82,4.76,4.76,0,0,1,3.92-1.7,4.5,4.5,0,0,1,3.75,1.6,7.53,7.53,0,0,1,1.28,4.71v1.7h-6.87a3.56,3.56,0,0,0,.65,2.15,2.19,2.19,0,0,0,1.77.67,3.88,3.88,0,0,0,2.89-1.18L175,27.28a4.46,4.46,0,0,1-1.85,1.43A6.33,6.33,0,0,1,170.54,29.25Zm-2.18-8.11h3.46v-.31a3.82,3.82,0,0,0-.39-1.8,1.38,1.38,0,0,0-1.27-.61,1.46,1.46,0,0,0-1.32.65A4.48,4.48,0,0,0,168.36,21.14Zm13,3L183,15.8h3.6L183,29h-3.3L176,15.8h3.62ZM191.85,29h-3.47V15.8h3.47Zm-3.62-16.63a1.79,1.79,0,0,1,.51-1.32,2.08,2.08,0,0,1,2.73,0,1.79,1.79,0,0,1,.52,1.32,1.83,1.83,0,0,1-.52,1.32,1.79,1.79,0,0,1-1.36.52,1.83,1.83,0,0,1-1.38-.52A1.81,1.81,0,0,1,188.23,12.38Zm11.07,14c1,0,1.51-.65,1.52-1.95h3.25a4.87,4.87,0,0,1-1.33,3.49,4.5,4.5,0,0,1-3.37,1.33,4.8,4.8,0,0,1-3.89-1.59A7.14,7.14,0,0,1,194.11,23v-1a7.41,7.41,0,0,1,1.32-4.75,4.75,4.75,0,0,1,3.92-1.64,4.45,4.45,0,0,1,3.44,1.36,5.46,5.46,0,0,1,1.28,3.82h-3.25a3.57,3.57,0,0,0-.36-1.71,1.27,1.27,0,0,0-1.18-.6,1.39,1.39,0,0,0-1.29.65,5.35,5.35,0,0,0-.41,2.48v1.34a11.53,11.53,0,0,0,.15,2.26,1.82,1.82,0,0,0,.53.94A1.65,1.65,0,0,0,199.3,26.38Zm12.06,2.87a5.4,5.4,0,0,1-4.15-1.59,6.36,6.36,0,0,1-1.49-4.54V22.07a7.46,7.46,0,0,1,1.37-4.82,4.73,4.73,0,0,1,3.91-1.7,4.5,4.5,0,0,1,3.75,1.6A7.53,7.53,0,0,1,216,21.86v1.7h-6.87a3.56,3.56,0,0,0,.65,2.15,2.19,2.19,0,0,0,1.77.67,3.88,3.88,0,0,0,2.89-1.18l1.36,2.08A4.46,4.46,0,0,1,214,28.71,6.33,6.33,0,0,1,211.36,29.25Zm-2.18-8.11h3.46v-.31a3.82,3.82,0,0,0-.39-1.8,1.38,1.38,0,0,0-1.27-.61,1.46,1.46,0,0,0-1.32.65A4.48,4.48,0,0,0,209.18,21.14Z" transform="translate(-0.97 0.14)"/><path class="cls-3" d="M73.08,43.87l1.29-4.3h1.52l-2.52,7.3a2.05,2.05,0,0,1-2,1.6,2.55,2.55,0,0,1-.69-.1V47.26l.27,0a1.38,1.38,0,0,0,.81-.2,1.29,1.29,0,0,0,.44-.65l.2-.55L70.2,39.57h1.54Zm7.4.29,1.87-4.59h1.78v6.34H82.71v-4.2L81,45.91H80l-1.75-4.22v4.22H76.82V39.57h1.79ZM91.1,45.91H89.68V43.35H87.21v2.56H85.79V39.57h1.42v2.64h2.47V39.57H91.1Zm3.06-4.32h1.39a3.2,3.2,0,0,1,1.36.27,2,2,0,0,1,.88.75,2.12,2.12,0,0,1,.3,1.13,2,2,0,0,1-.69,1.57,2.7,2.7,0,0,1-1.84.6H92.73V39.57h1.43Zm6.41,4.32H99.15V39.57h1.42Zm-6.41-3.18v2h1.39a1.24,1.24,0,0,0,.82-.25,1.09,1.09,0,0,0,0-1.5,1.09,1.09,0,0,0-.8-.29ZM105.07,46a3,3,0,0,1-2.19-.85A3.11,3.11,0,0,1,102,42.9v-.17A3.82,3.82,0,0,1,102.4,41a2.87,2.87,0,0,1,1-1.17,2.71,2.71,0,0,1,1.48-.42,2.49,2.49,0,0,1,2,.83,3.5,3.5,0,0,1,.71,2.34v.57h-4.15a2,2,0,0,0,.52,1.24,1.58,1.58,0,0,0,1.17.46,1.92,1.92,0,0,0,1.59-.79l.77.73a2.66,2.66,0,0,1-1,.89A3.33,3.33,0,0,1,105.07,46Zm-.17-5.43a1.2,1.2,0,0,0-1,.41,2.13,2.13,0,0,0-.45,1.14h2.71V42a1.76,1.76,0,0,0-.38-1.08A1.2,1.2,0,0,0,104.9,40.6Zm11.8.1h-2v5.21h-1.43V40.7h-2V39.57h5.51ZM120.07,46a3,3,0,0,1-2.19-.85A3.11,3.11,0,0,1,117,42.9v-.17A3.82,3.82,0,0,1,117.4,41a2.87,2.87,0,0,1,1-1.17,2.71,2.71,0,0,1,1.48-.42,2.49,2.49,0,0,1,2,.83,3.5,3.5,0,0,1,.71,2.34v.57h-4.15a2,2,0,0,0,.52,1.24,1.58,1.58,0,0,0,1.17.46,1.92,1.92,0,0,0,1.59-.79l.77.73a2.66,2.66,0,0,1-1,.89A3.33,3.33,0,0,1,120.07,46Zm-.17-5.43a1.2,1.2,0,0,0-1,.41,2.13,2.13,0,0,0-.45,1.14h2.71V42a1.76,1.76,0,0,0-.38-1.08A1.2,1.2,0,0,0,119.9,40.6Zm6.1,1.06,1.21-2.09h1.58l-1.94,3.12,2,3.22h-1.57L126,43.74l-1.26,2.17h-1.58l2-3.22-1.93-3.12h1.57Zm9.13,4.25h-1.42V43.35h-2.47v2.56h-1.42V39.57h1.42v2.64h2.47V39.57h1.42Zm1.26-3.23a3.76,3.76,0,0,1,.36-1.67,2.71,2.71,0,0,1,1-1.15,2.93,2.93,0,0,1,1.54-.41,2.77,2.77,0,0,1,2.08.83,3.24,3.24,0,0,1,.86,2.19v.33a3.77,3.77,0,0,1-.36,1.68,2.71,2.71,0,0,1-1,1.14,3,3,0,0,1-1.55.41,2.77,2.77,0,0,1-2.15-.89,3.44,3.44,0,0,1-.8-2.39Zm1.42.12a2.56,2.56,0,0,0,.4,1.54,1.42,1.42,0,0,0,2.25,0,2.83,2.83,0,0,0,.4-1.65,2.54,2.54,0,0,0-.41-1.52,1.31,1.31,0,0,0-1.12-.56,1.3,1.3,0,0,0-1.11.55A2.79,2.79,0,0,0,137.81,42.8Zm11-3.23v6.34h-1.43V40.72h-1.79l-.12,2.21a4.61,4.61,0,0,1-.61,2.29,1.76,1.76,0,0,1-1.53.69h-.44V44.73l.3,0a.87.87,0,0,0,.68-.57,6.27,6.27,0,0,0,.27-1.85l.12-2.71ZM150,42.68A3.63,3.63,0,0,1,150.4,41a2.63,2.63,0,0,1,1-1.15,2.93,2.93,0,0,1,1.54-.41,2.77,2.77,0,0,1,2.08.83,3.24,3.24,0,0,1,.86,2.19v.33a3.77,3.77,0,0,1-.36,1.68,2.65,2.65,0,0,1-1,1.14A2.94,2.94,0,0,1,153,46a2.77,2.77,0,0,1-2.15-.89,3.44,3.44,0,0,1-.8-2.39Zm1.42.12a2.56,2.56,0,0,0,.4,1.54,1.42,1.42,0,0,0,2.25,0,2.83,2.83,0,0,0,.4-1.65,2.54,2.54,0,0,0-.41-1.52A1.31,1.31,0,0,0,153,40.6a1.3,1.3,0,0,0-1.11.55A2.79,2.79,0,0,0,151.45,42.8Zm9.9-2.08h-2.76v5.19h-1.42V39.57h4.18Zm4.76-1.15h1.42v6.34h-1.42V41.68l-2.48,4.23h-1.42V39.57h1.42V43.8Zm6.89,0h1.42v6.34H173V41.68l-2.48,4.23H169.1V39.57h1.42V43.8Z" transform="translate(-0.97 0.14)"/></svg>
