<?xml version="1.0" encoding="utf-8"?>
<!-- Generator: Adobe Illustrator 24.1.2, SVG Export Plug-In . SVG Version: 6.00 Build 0)  -->
<svg version="1.1" width="202" height="52" id="Слой_1" xmlns="http://www.w3.org/2000/svg" xmlns:xlink="http://www.w3.org/1999/xlink" x="0px" y="0px"
	 viewBox="0 0 202 52" style="enable-background:new 0 0 202 52;" xml:space="preserve">
<style type="text/css">
	.st0{fill:#00B2FF;}
	.st1{fill:#788891;}
	.st2{fill:#FFFFFF;}
</style>
<g>
	<path class="st0" d="M32.5,13.9c1.1,0,2.1,0.7,2.5,1.7h9c0.5-1.4,2-2.1,3.3-1.6c1.4,0.5,2.1,2,1.6,3.3s-2,2.1-3.3,1.6
		c-0.7-0.3-1.3-0.8-1.6-1.6h-9c-0.5,1.4-2,2.1-3.3,1.6c-1.4-0.5-2.1-2-1.6-3.3C30.4,14.6,31.4,13.9,32.5,13.9z M46.4,17.3
		c0.5,0,0.9-0.4,0.9-0.9c0-0.5-0.4-0.9-0.9-0.9c-0.5,0-0.9,0.4-0.9,0.9l0,0C45.5,17,45.9,17.3,46.4,17.3z M32.5,17.3
		c0.5,0,0.9-0.4,0.9-0.9c0-0.5-0.4-0.9-0.9-0.9c-0.5,0-0.9,0.4-0.9,0.9c0,0,0,0,0,0C31.6,16.9,32,17.3,32.5,17.3z"/>
	<path class="st0" d="M25.6,19.2v-5.4c0-0.2,0.1-0.4,0.3-0.6l3.5-3.5c0.2-0.2,0.4-0.3,0.6-0.3h2.8c0.5-1.4,2-2.1,3.3-1.6
		c1.4,0.5,2.1,2,1.6,3.3s-2,2.1-3.3,1.6c-0.7-0.3-1.3-0.8-1.6-1.6h-2.4l-3,3v5c1.4,0.5,2.1,2,1.6,3.3c-0.5,1.4-2,2.1-3.3,1.6
		s-2.1-2-1.6-3.3C24.2,20.1,24.8,19.5,25.6,19.2L25.6,19.2z M35.1,11.2c0.5,0,0.9-0.4,0.9-0.9c0-0.5-0.4-0.9-0.9-0.9
		c-0.5,0-0.9,0.4-0.9,0.9c0,0,0,0,0,0C34.2,10.8,34.6,11.2,35.1,11.2C35.1,11.3,35.1,11.3,35.1,11.2L35.1,11.2z M26.5,22.5
		c0.5,0,0.9-0.4,0.9-0.9s-0.4-0.9-0.9-0.9c-0.5,0-0.9,0.4-0.9,0.9C25.6,22.1,26,22.5,26.5,22.5C26.5,22.5,26.5,22.5,26.5,22.5z"/>
	<path class="st0" d="M10,22.5c0.4,0,0.8,0.1,1.1,0.3l1.5-1.5V13c0-0.2,0.1-0.5,0.3-0.6l8.6-8.7c-0.6-1.3-0.1-2.8,1.2-3.5
		c1.3-0.6,2.8-0.1,3.5,1.2s0.1,2.8-1.2,3.5c-0.4,0.2-0.7,0.3-1.1,0.3c-0.4,0-0.8-0.1-1.1-0.3l-8.4,8.4v8.3c0,0.2-0.1,0.4-0.3,0.6
		L12.3,24c0.7,1.3,0.2,2.8-1.1,3.5s-2.8,0.2-3.5-1.1c-0.2-0.4-0.3-0.8-0.3-1.3C7.4,23.7,8.6,22.5,10,22.5C10,22.5,10,22.5,10,22.5z
		 M23.9,3.5c0.5,0,0.9-0.4,0.9-0.9s-0.4-0.9-0.9-0.9S23,2.1,23,2.6C23,3.1,23.4,3.5,23.9,3.5C23.9,3.5,23.9,3.5,23.9,3.5z M10,26
		c0.5,0,0.9-0.4,0.9-0.9s-0.4-0.9-0.9-0.9c-0.5,0-0.9,0.4-0.9,0.9c0,0,0,0,0,0C9.1,25.6,9.5,26,10,26C10,26,10,26,10,26z"/>
	<path class="st0" d="M2.2,12.3V8.7c0-0.2,0.1-0.5,0.3-0.6l6-6.1c0.2-0.2,0.4-0.3,0.6-0.3h4.5c0.5-1.4,2-2.1,3.3-1.6s2.1,2,1.6,3.3
		c-0.5,1.4-2,2.1-3.3,1.6c-0.7-0.3-1.3-0.8-1.6-1.6H9.5L3.9,9v3.3c1.4,0.5,2.1,2,1.6,3.3c-0.5,1.4-2,2.1-3.3,1.6s-2.1-2-1.6-3.3
		C0.9,13.1,1.5,12.6,2.2,12.3z M16.1,3.5c0.5,0,0.9-0.4,0.9-0.9s-0.4-0.9-0.9-0.9c-0.5,0-0.9,0.4-0.9,0.9v0
		C15.2,3.1,15.6,3.5,16.1,3.5C16.1,3.5,16.1,3.5,16.1,3.5z M3.1,15.6c0.5-0.1,0.8-0.5,0.8-1c0-0.4-0.4-0.7-0.8-0.8
		c-0.5-0.1-0.9,0.3-1,0.8c-0.1,0.5,0.3,0.9,0.8,1C2.9,15.6,3,15.6,3.1,15.6z"/>
	<path class="st0" d="M14.3,47V34.5c-1.3-0.5-2-2-1.6-3.3c0.5-1.3,2-2,3.3-1.6c0.7,0.3,1.3,0.8,1.6,1.6h9c0.5-1.3,2-2.1,3.3-1.6
		c0.7,0.3,1.3,0.8,1.6,1.6h5l3.2-3.2c-0.2-0.3-0.2-0.7-0.2-1.1c0-1.4,1.2-2.6,2.6-2.6c1.4,0,2.6,1.2,2.6,2.6c0,1.4-1.2,2.6-2.6,2.6
		l0,0c-0.4,0-0.8-0.1-1.1-0.3l-3.5,3.5c-0.2,0.2-0.4,0.3-0.6,0.3h-5.4c-0.5,1.3-2,2.1-3.3,1.6c-0.7-0.3-1.3-0.8-1.6-1.6h-9
		c-0.3,0.7-0.8,1.3-1.6,1.6V47c1.4,0.5,2.1,2,1.6,3.3s-2,2.1-3.3,1.6s-2.1-2-1.6-3.3C13,47.8,13.6,47.2,14.3,47L14.3,47z M42.1,27.7
		c0.5,0,0.9-0.4,0.9-0.9c0-0.5-0.4-0.9-0.9-0.9s-0.9,0.4-0.9,0.9l0,0C41.2,27.3,41.6,27.7,42.1,27.7C42.1,27.7,42.1,27.7,42.1,27.7z
		 M29.1,32.9c0.5,0,0.9-0.4,0.9-0.9c0-0.5-0.4-0.9-0.9-0.9c-0.5,0-0.9,0.4-0.9,0.9C28.2,32.5,28.6,32.9,29.1,32.9
		C29.1,32.9,29.1,32.9,29.1,32.9z M15.2,50.3c0.5,0,0.9-0.4,0.9-0.9s-0.4-0.9-0.9-0.9c-0.5,0-0.9,0.4-0.9,0.9l0,0
		C14.3,49.9,14.7,50.3,15.2,50.3z M15.2,32.9c0.5,0,0.9-0.4,0.9-0.9s-0.4-0.9-0.9-0.9c-0.5,0-0.9,0.4-0.9,0.9
		C14.3,32.6,14.7,32.9,15.2,32.9z"/>
	<path class="st0" d="M18.7,17.5v-2.8c0-0.2,0.1-0.4,0.3-0.6L29.3,3.7c-0.6-1.3,0.1-2.8,1.4-3.4c1.3-0.6,2.8,0.1,3.4,1.4h3.6
		c0.5,0,0.9,0.4,0.9,0.9v2.3l3.2,3.2c0.3-0.2,0.7-0.3,1.1-0.3c1.4,0,2.6,1.2,2.6,2.6S44.4,13,42.9,13c-1.4,0-2.6-1.2-2.6-2.6v0
		c0-0.4,0.1-0.8,0.3-1.1l-3.5-3.5c-0.2-0.2-0.3-0.4-0.3-0.6V3.5h-2.8c-0.4,1-1.3,1.7-2.4,1.7c-0.4,0-0.8-0.1-1.1-0.3L20.4,15.1v2.4
		c1.4,0.5,2.1,2,1.6,3.3c-0.5,1.4-2,2.1-3.3,1.6s-2.1-2-1.6-3.3C17.3,18.4,17.9,17.8,18.7,17.5L18.7,17.5z M42.9,11.3
		c0.5,0,0.9-0.4,0.9-0.9c0-0.5-0.4-0.9-0.9-0.9c-0.5,0-0.9,0.4-0.9,0.9c0,0,0,0,0,0C42.1,10.9,42.5,11.3,42.9,11.3z M31.7,3.5
		c0.5,0,0.9-0.4,0.9-0.9s-0.4-0.9-0.9-0.9c-0.5,0-0.9,0.4-0.9,0.9C30.8,3.1,31.2,3.5,31.7,3.5C31.7,3.5,31.7,3.5,31.7,3.5z
		 M19.5,20.8c0.5,0,0.9-0.4,0.9-0.9c0-0.5-0.4-0.9-0.9-0.9c-0.5,0-0.9,0.4-0.9,0.9c0,0,0,0,0,0C18.6,20.4,19,20.8,19.5,20.8
		C19.5,20.8,19.5,20.8,19.5,20.8z"/>
	<path class="st0" d="M21.3,24.3c1.1,0,2.1,0.7,2.4,1.7h10.2l5-4.9c0.2-0.2,0.4-0.3,0.6-0.3h9.2l2.1-2.1v-7.1L44,4.9
		c-0.3,0.2-0.7,0.3-1.1,0.3c-1.4,0-2.6-1.1-2.6-2.6c0-1.4,1.1-2.6,2.6-2.6s2.6,1.1,2.6,2.6c0,0,0,0,0,0c0,0.4-0.1,0.8-0.3,1.1
		l6.9,6.9c0.2,0.2,0.3,0.4,0.3,0.6v7.8c0,0.2-0.1,0.5-0.3,0.6l-2.6,2.6c-0.2,0.2-0.4,0.3-0.6,0.3h-9.1l-5,4.9
		c-0.2,0.2-0.4,0.3-0.6,0.3H23.7c-0.5,1.4-2,2.1-3.3,1.6c-1.4-0.5-2.1-2-1.6-3.3C19.2,25,20.2,24.3,21.3,24.3z M42.9,1.7
		c-0.5,0-0.9,0.4-0.9,0.9c0,0.5,0.4,0.9,0.9,0.9c0.5,0,0.9-0.4,0.9-0.9c0,0,0,0,0,0C43.8,2.1,43.4,1.7,42.9,1.7z M21.3,27.7
		c0.5,0,0.9-0.4,0.9-0.9S21.8,26,21.3,26c-0.5,0-0.9,0.4-0.9,0.9C20.4,27.3,20.8,27.7,21.3,27.7C21.3,27.7,21.3,27.7,21.3,27.7z"/>
	<path class="st0" d="M3.1,20.8c0.4,0,0.8,0.1,1.1,0.3l3.2-3.2v-5c-1.4-0.5-2.1-2-1.6-3.3c0.5-1.4,2-2.1,3.3-1.6
		c1.4,0.5,2.1,2,1.6,3.3c-0.3,0.7-0.9,1.3-1.6,1.6v5.3c0,0.2-0.1,0.5-0.3,0.6l-3.5,3.5c0.6,1.3,0.1,2.8-1.2,3.4
		c-0.1,0-0.2,0.1-0.3,0.1v0.7l6.7,6.7c0.2,0.2,0.3,0.4,0.3,0.6v1c1.3,0.5,2.1,2,1.6,3.3c-0.3,0.7-0.8,1.3-1.6,1.6v2
		c1.4,0.5,2.1,2,1.6,3.3c-0.5,1.4-2,2.1-3.3,1.6s-2.1-2-1.6-3.3c0.3-0.7,0.8-1.3,1.6-1.6v-2c-1.3-0.5-2.1-2-1.6-3.3
		c0.3-0.7,0.8-1.3,1.6-1.6v-0.7l-6.6-6.7c-0.2-0.2-0.3-0.4-0.3-0.6v-1c-1.3-0.5-2-2-1.5-3.4C1.2,21.5,2.1,20.9,3.1,20.8L3.1,20.8z
		 M8.3,11.3c0.5,0,0.9-0.4,0.9-0.9S8.8,9.5,8.3,9.5s-0.9,0.4-0.9,0.9l0,0C7.4,10.9,7.8,11.3,8.3,11.3C8.3,11.3,8.3,11.3,8.3,11.3z
		 M10,45.1c0.5,0,0.9-0.4,0.9-0.9s-0.4-0.9-0.9-0.9s-0.9,0.4-0.9,0.9l0,0C9.1,44.7,9.5,45.1,10,45.1z M10,38.1
		c0.5,0,0.9-0.4,0.9-0.9s-0.4-0.9-0.9-0.9s-0.9,0.4-0.9,0.9l0,0C9.1,37.8,9.5,38.1,10,38.1z M3.1,24.3c0.5,0,0.9-0.4,0.9-0.9
		c0-0.5-0.4-0.9-0.9-0.9s-0.9,0.4-0.9,0.9C2.2,23.9,2.6,24.3,3.1,24.3C3.1,24.3,3.1,24.3,3.1,24.3z"/>
</g>
<path class="st1" d="M73.6,44l1.3-4.3h1.5L73.9,47c-0.2,0.9-1,1.6-2,1.6c-0.2,0-0.5,0-0.7-0.1v-1.1h0.3c0.3,0,0.6-0.1,0.8-0.2
	c0.2-0.2,0.4-0.4,0.4-0.7l0.2-0.5l-2.2-6.3h1.5L73.6,44z M81,44.3l1.9-4.6h1.8V46h-1.4v-4.2L81.5,46h-1l-1.8-4.2V46h-1.4v-6.3h1.8
	L81,44.3z M91.6,46h-1.4v-2.6h-2.5V46h-1.4v-6.3h1.4v2.6h2.5v-2.6h1.4V46z M94.7,41.7H96c0.5,0,0.9,0.1,1.4,0.3
	c0.4,0.2,0.7,0.4,0.9,0.8c0.2,0.3,0.3,0.7,0.3,1.1c0,0.6-0.2,1.2-0.7,1.6c-0.5,0.4-1.2,0.6-1.8,0.6h-2.8v-6.3h1.4L94.7,41.7z
	 M101.1,46h-1.4v-6.3h1.4L101.1,46z M94.7,42.9v2H96c0.3,0,0.6-0.1,0.8-0.3c0.4-0.4,0.4-1.1,0-1.5c-0.2-0.2-0.5-0.3-0.8-0.3
	L94.7,42.9z M105.6,46.1c-0.8,0-1.6-0.3-2.2-0.8c-0.6-0.6-0.9-1.4-0.9-2.3v-0.2c0-0.6,0.1-1.2,0.4-1.7c0.2-0.5,0.6-0.9,1-1.2
	c0.4-0.3,1-0.4,1.5-0.4c0.8,0,1.5,0.3,2,0.8c0.5,0.7,0.8,1.5,0.7,2.3v0.6h-4.2c0,0.5,0.2,0.9,0.5,1.2c0.3,0.3,0.7,0.5,1.2,0.5
	c0.6,0,1.2-0.3,1.6-0.8l0.8,0.7c-0.3,0.4-0.6,0.7-1,0.9C106.5,46,106.1,46.1,105.6,46.1z M105.4,40.7c-0.4,0-0.8,0.1-1,0.4
	c-0.3,0.3-0.4,0.7-0.4,1.1h2.7v-0.1c0-0.4-0.1-0.8-0.4-1.1C106,40.8,105.7,40.7,105.4,40.7L105.4,40.7z M117.2,40.8h-2V46h-1.4v-5.2
	h-2v-1.1h5.5L117.2,40.8z M120.6,46.1c-0.8,0-1.6-0.3-2.2-0.8c-0.6-0.6-0.9-1.4-0.9-2.3v-0.2c0-0.6,0.1-1.2,0.4-1.7
	c0.2-0.5,0.6-0.9,1-1.2c0.4-0.3,1-0.4,1.5-0.4c0.8,0,1.5,0.3,2,0.8c0.5,0.7,0.8,1.5,0.7,2.3v0.6h-4.2c0,0.5,0.2,0.9,0.5,1.2
	c0.3,0.3,0.7,0.5,1.2,0.5c0.6,0,1.2-0.3,1.6-0.8l0.8,0.7c-0.3,0.4-0.6,0.7-1,0.9C121.5,46,121.1,46.1,120.6,46.1z M120.4,40.7
	c-0.4,0-0.8,0.1-1,0.4c-0.3,0.3-0.4,0.7-0.4,1.1h2.7v-0.1c0-0.4-0.1-0.8-0.4-1.1C121,40.8,120.7,40.7,120.4,40.7L120.4,40.7z
	 M126.5,41.8l1.2-2.1h1.6l-1.9,3.1l2,3.2h-1.6l-1.3-2.1l-1.3,2.2h-1.6l2-3.2l-1.9-3.1h1.6L126.5,41.8z M135.6,46h-1.4v-2.5h-2.5V46
	h-1.4v-6.3h1.4v2.6h2.5v-2.6h1.4V46z M136.9,42.8c0-0.6,0.1-1.1,0.4-1.7c0.2-0.5,0.6-0.9,1-1.2c0.5-0.3,1-0.4,1.5-0.4
	c0.8,0,1.5,0.3,2.1,0.8c0.6,0.6,0.9,1.4,0.9,2.2v0.3c0,0.6-0.1,1.2-0.4,1.7c-0.2,0.5-0.6,0.9-1,1.1c-0.5,0.3-1,0.4-1.6,0.4
	c-0.8,0-1.6-0.3-2.1-0.9C137.1,44.6,136.8,43.7,136.9,42.8L136.9,42.8z M138.3,42.9c0,0.5,0.1,1.1,0.4,1.5c0.5,0.6,1.4,0.7,2,0.3
	c0.1-0.1,0.2-0.2,0.3-0.3c0.3-0.5,0.4-1.1,0.4-1.7c0-0.5-0.1-1.1-0.4-1.5c-0.3-0.4-0.7-0.6-1.1-0.6c-0.4,0-0.9,0.2-1.1,0.5
	C138.4,41.8,138.3,42.4,138.3,42.9L138.3,42.9z M149.3,39.7V46h-1.4v-5.2h-1.8l-0.1,2.2c0,0.8-0.2,1.6-0.6,2.3
	c-0.4,0.5-0.9,0.7-1.5,0.7h-0.4v-1.2h0.3c0.3-0.1,0.6-0.3,0.7-0.6c0.2-0.6,0.3-1.2,0.3-1.8l0.1-2.7L149.3,39.7z M150.5,42.8
	c0-0.6,0.1-1.2,0.4-1.7c0.2-0.5,0.6-0.9,1-1.2c0.5-0.3,1-0.4,1.5-0.4c0.8,0,1.5,0.3,2.1,0.8c0.6,0.6,0.9,1.4,0.9,2.2v0.3
	c0,0.6-0.1,1.2-0.4,1.7c-0.2,0.5-0.6,0.9-1,1.1c-0.5,0.3-1,0.4-1.5,0.4c-0.8,0-1.6-0.3-2.1-0.9C150.8,44.6,150.5,43.7,150.5,42.8
	L150.5,42.8z M151.9,42.9c0,0.5,0.1,1.1,0.4,1.5c0.5,0.6,1.4,0.7,2,0.3c0.1-0.1,0.2-0.2,0.3-0.3c0.3-0.5,0.4-1.1,0.4-1.7
	c0-0.5-0.1-1.1-0.4-1.5c-0.2-0.4-0.6-0.6-1.1-0.6c-0.4,0-0.9,0.2-1.1,0.5C152.1,41.8,151.9,42.4,151.9,42.9L151.9,42.9z M161.8,40.9
	h-2.8V46h-1.4v-6.3h4.2V40.9z M166.6,39.7h1.4V46h-1.4v-4.2l-2.5,4.2h-1.4v-6.3h1.4v4.2L166.6,39.7z M173.5,39.7h1.4V46h-1.4v-4.2
	L171,46h-1.4v-6.3h1.4v4.2L173.5,39.7z"/>
<path class="st2" d="M78.7,24.5c0-0.7-0.2-1.3-0.6-1.6c-0.4-0.4-1-0.8-2-1.2c-1.8-0.7-3.1-1.5-3.8-2.4c-0.8-0.9-1.2-2-1.2-3.2
	c0-1.5,0.5-2.7,1.6-3.6c1.1-0.9,2.4-1.4,4.1-1.4c1.1,0,2.1,0.2,2.9,0.7c0.9,0.5,1.5,1.1,2,1.9c0.5,0.8,0.7,1.8,0.7,2.9h-3.6
	c0-0.8-0.2-1.5-0.5-1.9c-0.3-0.4-0.9-0.7-1.5-0.7c-0.6,0-1.1,0.2-1.5,0.6c-0.3,0.4-0.5,0.9-0.5,1.5c0,0.5,0.2,0.9,0.6,1.3
	c0.4,0.4,1.1,0.8,2.1,1.2c1.7,0.6,3,1.4,3.8,2.3c0.8,0.9,1.2,2.1,1.2,3.5c0,1.5-0.5,2.8-1.5,3.6c-1,0.9-2.3,1.3-4,1.3
	c-1.1,0-2.2-0.2-3.1-0.7c-0.9-0.5-1.7-1.1-2.2-2c-0.5-0.9-0.8-1.9-0.8-3.1h3.6c0,1,0.2,1.8,0.6,2.2c0.4,0.5,1,0.7,2,0.7
	C78,26.5,78.7,25.8,78.7,24.5z M87.7,16l0.1,1.2c0.8-1,1.8-1.5,3.1-1.5c1.3,0,2.3,0.6,2.8,1.8c0.8-1.2,1.8-1.8,3.2-1.8
	c2.3,0,3.5,1.6,3.6,4.8v8.7H97v-8.4c0-0.8-0.1-1.3-0.3-1.6c-0.2-0.3-0.6-0.5-1.1-0.5c-0.6,0-1.1,0.4-1.4,1.2l0,0.4v9h-3.5v-8.4
	c0-0.8-0.1-1.3-0.3-1.6c-0.2-0.3-0.6-0.5-1.1-0.5c-0.6,0-1.1,0.3-1.4,1v9.6h-3.5V16H87.7z M109.3,29.2c-0.1-0.2-0.2-0.5-0.3-1
	c-0.6,0.8-1.5,1.3-2.5,1.3c-1.1,0-2-0.4-2.8-1.1c-0.7-0.7-1.1-1.7-1.1-2.8c0-1.4,0.4-2.5,1.3-3.2c0.9-0.8,2.2-1.1,3.8-1.2h1V20
	c0-0.6-0.1-1-0.3-1.3c-0.2-0.2-0.5-0.4-0.9-0.4c-0.9,0-1.3,0.5-1.3,1.5h-3.5c0-1.2,0.5-2.2,1.4-3c0.9-0.8,2.1-1.2,3.5-1.2
	c1.4,0,2.6,0.4,3.4,1.1c0.8,0.7,1.2,1.8,1.2,3.2v6.2c0,1.1,0.2,2,0.5,2.7v0.2H109.3z M107.3,26.7c0.4,0,0.7-0.1,1-0.2
	c0.3-0.2,0.5-0.3,0.6-0.5v-2.7H108c-0.6,0-1,0.2-1.4,0.6c-0.3,0.4-0.5,0.9-0.5,1.5C106.1,26.2,106.5,26.7,107.3,26.7z M121.3,19.3
	l-1.1-0.1c-0.9,0-1.6,0.4-1.9,1.2v8.7h-3.5V16h3.3l0.1,1.4c0.5-1.1,1.3-1.7,2.3-1.7c0.4,0,0.7,0.1,1,0.2L121.3,19.3z M127.7,12.7V16
	h1.8v2.6h-1.8v6.6c0,0.5,0.1,0.9,0.2,1.1c0.1,0.2,0.4,0.3,0.8,0.3c0.3,0,0.6,0,0.8-0.1l0,2.7c-0.6,0.2-1.2,0.3-1.9,0.3
	c-2.2,0-3.4-1.3-3.4-3.8v-7h-1.5V16h1.5v-3.2H127.7z M137.3,29.2V11.4h4.7c2.1,0,3.7,0.7,5,2c1.2,1.3,1.9,3.1,1.9,5.4v2.9
	c0,2.3-0.6,4.2-1.9,5.5c-1.2,1.3-2.9,2-5.1,2H137.3z M140.9,14.4v11.8h1.1c1.2,0,2-0.3,2.5-0.9c0.5-0.6,0.7-1.7,0.8-3.3v-3.1
	c0-1.7-0.2-2.8-0.7-3.5c-0.5-0.7-1.3-1-2.4-1H140.9z M156.6,29.4c-1.8,0-3.2-0.5-4.2-1.6c-1-1.1-1.5-2.6-1.5-4.5v-1
	c0-2.1,0.5-3.7,1.4-4.8c0.9-1.1,2.2-1.7,3.9-1.7c1.7,0,2.9,0.5,3.7,1.6c0.8,1.1,1.3,2.6,1.3,4.7v1.7h-6.9c0,1,0.3,1.7,0.6,2.1
	c0.4,0.4,1,0.7,1.8,0.7c1.2,0,2.1-0.4,2.9-1.2l1.4,2.1c-0.4,0.6-1,1.1-1.8,1.4C158.5,29.2,157.6,29.4,156.6,29.4z M154.5,21.3h3.5
	V21c0-0.8-0.1-1.4-0.4-1.8c-0.2-0.4-0.7-0.6-1.3-0.6c-0.6,0-1,0.2-1.3,0.6C154.7,19.7,154.5,20.4,154.5,21.3z M167.4,24.3l1.7-8.3
	h3.6l-3.6,13.2h-3.3L162.2,16h3.6L167.4,24.3z M178,29.2h-3.5V16h3.5V29.2z M174.3,12.6c0-0.5,0.2-1,0.5-1.3
	c0.3-0.3,0.8-0.5,1.4-0.5c0.6,0,1,0.2,1.4,0.5c0.3,0.3,0.5,0.8,0.5,1.3c0,0.5-0.2,1-0.5,1.3c-0.3,0.3-0.8,0.5-1.4,0.5
	c-0.6,0-1-0.2-1.4-0.5C174.5,13.5,174.3,13.1,174.3,12.6z M185.4,26.6c1,0,1.5-0.7,1.5-2h3.2c0,1.4-0.5,2.6-1.3,3.5
	c-0.9,0.9-2,1.3-3.4,1.3c-1.7,0-3-0.5-3.9-1.6c-0.9-1.1-1.4-2.6-1.4-4.7v-1c0-2.1,0.4-3.7,1.3-4.7c0.9-1.1,2.2-1.6,3.9-1.6
	c1.5,0,2.6,0.5,3.4,1.4c0.8,0.9,1.3,2.2,1.3,3.8h-3.2c0-0.7-0.1-1.3-0.4-1.7c-0.2-0.4-0.6-0.6-1.2-0.6c-0.6,0-1,0.2-1.3,0.6
	c-0.3,0.4-0.4,1.2-0.4,2.5v1.3c0,1.1,0.1,1.8,0.2,2.3c0.1,0.4,0.3,0.7,0.5,0.9C184.6,26.5,185,26.6,185.4,26.6z M197.5,29.4
	c-1.8,0-3.2-0.5-4.2-1.6c-1-1.1-1.5-2.6-1.5-4.5v-1c0-2.1,0.5-3.7,1.4-4.8c0.9-1.1,2.2-1.7,3.9-1.7c1.7,0,2.9,0.5,3.7,1.6
	c0.8,1.1,1.3,2.6,1.3,4.7v1.7h-6.9c0,1,0.3,1.7,0.6,2.1c0.4,0.4,1,0.7,1.8,0.7c1.2,0,2.1-0.4,2.9-1.2l1.4,2.1
	c-0.4,0.6-1,1.1-1.8,1.4C199.3,29.2,198.4,29.4,197.5,29.4z M195.3,21.3h3.5V21c0-0.8-0.1-1.4-0.4-1.8c-0.2-0.4-0.7-0.6-1.3-0.6
	s-1,0.2-1.3,0.6C195.5,19.7,195.3,20.4,195.3,21.3z"/>
</svg>
