<?xml version="1.0" encoding="utf-8"?>
<!-- Generator: Adobe Illustrator 24.1.2, SVG Export Plug-In . SVG Version: 6.00 Build 0)  -->
<svg version="1.1" id="Слой_1" xmlns="http://www.w3.org/2000/svg" xmlns:xlink="http://www.w3.org/1999/xlink" x="0px" y="0px"
	 viewBox="0 0 38 38" style="enable-background:new 0 0 38 38;" xml:space="preserve">
<style type="text/css">
	.st0{fill:#00B2FF;}
</style>
<path class="st0" d="M23.4,10.1c0.8,0,1.5,0.5,1.8,1.3h6.6c0.3-0.7,1-1.3,1.8-1.3c1,0,1.9,0.9,1.9,1.9c0,1-0.9,1.9-1.9,1.9
	c-0.8,0-1.5-0.5-1.8-1.3h-6.6c-0.3,0.7-1,1.3-1.8,1.3c-1,0-1.9-0.9-1.9-1.9C21.5,11,22.4,10.1,23.4,10.1z M33.6,12.7
	c0.3,0,0.6-0.3,0.6-0.6s-0.3-0.6-0.6-0.6c-0.3,0-0.6,0.3-0.6,0.6S33.2,12.7,33.6,12.7z M23.4,12.7c0.3,0,0.6-0.3,0.6-0.6
	s-0.3-0.6-0.6-0.6c-0.3,0-0.6,0.3-0.6,0.6S23.1,12.7,23.4,12.7z"/>
<path class="st0" d="M18.4,14v-3.9c0-0.2,0.1-0.3,0.2-0.4l2.5-2.5C21.2,7,21.4,7,21.5,7h2c0.3-0.7,1-1.3,1.8-1.3
	c1,0,1.9,0.9,1.9,1.9c0,1-0.9,1.9-1.9,1.9c-0.8,0-1.5-0.5-1.8-1.3h-1.8l-2.2,2.2V14c0.7,0.3,1.3,1,1.3,1.8c0,1-0.9,1.9-1.9,1.9
	c-1,0-1.9-0.9-1.9-1.9C17.1,15,17.6,14.3,18.4,14z M25.3,8.2c0.3,0,0.6-0.3,0.6-0.6C26,7.3,25.7,7,25.3,7c-0.3,0-0.6,0.3-0.6,0.6
	C24.7,7.9,25,8.2,25.3,8.2z M19,16.5c0.3,0,0.6-0.3,0.6-0.6c0-0.3-0.3-0.6-0.6-0.6c-0.3,0-0.6,0.3-0.6,0.6
	C18.4,16.2,18.7,16.5,19,16.5z"/>
<path class="st0" d="M7,16.5c0.3,0,0.6,0.1,0.8,0.2l1.1-1.1V9.5c0-0.2,0.1-0.3,0.2-0.4l6.3-6.3c-0.1-0.2-0.2-0.5-0.2-0.8
	c0-1,0.9-1.9,1.9-1.9c1,0,1.9,0.9,1.9,1.9c0,1-0.9,1.9-1.9,1.9c-0.3,0-0.6-0.1-0.8-0.2l-6.2,6.2v6.1c0,0.2-0.1,0.3-0.2,0.4l-1.3,1.3
	c0.1,0.2,0.2,0.5,0.2,0.8c0,1-0.9,1.9-1.9,1.9s-1.9-0.9-1.9-1.9C5.1,17.3,5.9,16.5,7,16.5z M17.1,2.5c0.3,0,0.6-0.3,0.6-0.6
	c0-0.3-0.3-0.6-0.6-0.6c-0.3,0-0.6,0.3-0.6,0.6C16.5,2.2,16.8,2.5,17.1,2.5z M7,19c0.3,0,0.6-0.3,0.6-0.6c0-0.3-0.3-0.6-0.6-0.6
	c-0.3,0-0.6,0.3-0.6,0.6C6.3,18.7,6.6,19,7,19z"/>
<path class="st0" d="M1.3,9V6.3c0-0.2,0.1-0.3,0.2-0.4l4.4-4.4C6,1.3,6.2,1.3,6.3,1.3h3.3c0.3-0.7,1-1.3,1.8-1.3
	c1,0,1.9,0.9,1.9,1.9c0,1-0.9,1.9-1.9,1.9c-0.8,0-1.5-0.5-1.8-1.3h-3L2.5,6.6V9c0.7,0.3,1.3,1,1.3,1.8c0,1-0.9,1.9-1.9,1.9
	S0,11.8,0,10.8C0,9.9,0.5,9.2,1.3,9z M11.4,2.5c0.3,0,0.6-0.3,0.6-0.6c0-0.3-0.3-0.6-0.6-0.6c-0.3,0-0.6,0.3-0.6,0.6
	C10.8,2.2,11.1,2.5,11.4,2.5z M1.9,11.4c0.3,0,0.6-0.3,0.6-0.6c0-0.3-0.3-0.6-0.6-0.6s-0.6,0.3-0.6,0.6C1.3,11.1,1.6,11.4,1.9,11.4z
	"/>
<path class="st0" d="M10.1,34.3v-9.1c-0.7-0.3-1.3-1-1.3-1.8c0-1,0.9-1.9,1.9-1.9c0.8,0,1.5,0.5,1.8,1.3h6.6c0.3-0.7,1-1.3,1.8-1.3
	c0.8,0,1.5,0.5,1.8,1.3h3.7l2.4-2.4c-0.1-0.2-0.2-0.5-0.2-0.8c0-1,0.9-1.9,1.9-1.9c1,0,1.9,0.9,1.9,1.9c0,1-0.9,1.9-1.9,1.9
	c-0.3,0-0.6-0.1-0.8-0.2L27,23.9c-0.1,0.1-0.3,0.2-0.4,0.2h-3.9c-0.3,0.7-1,1.3-1.8,1.3c-0.8,0-1.5-0.5-1.8-1.3h-6.6
	c-0.2,0.5-0.6,1-1.2,1.2v9.1c0.7,0.3,1.3,1,1.3,1.8c0,1-0.9,1.9-1.9,1.9c-1,0-1.9-0.9-1.9-1.9C8.9,35.3,9.4,34.6,10.1,34.3z
	 M30.4,20.3c0.3,0,0.6-0.3,0.6-0.6c0-0.3-0.3-0.6-0.6-0.6c-0.3,0-0.6,0.3-0.6,0.6C29.8,20,30.1,20.3,30.4,20.3z M20.9,24.1
	c0.3,0,0.6-0.3,0.6-0.6c0-0.3-0.3-0.6-0.6-0.6c-0.3,0-0.6,0.3-0.6,0.6C20.3,23.8,20.6,24.1,20.9,24.1z M10.8,36.7
	c0.3,0,0.6-0.3,0.6-0.6c0-0.3-0.3-0.6-0.6-0.6s-0.6,0.3-0.6,0.6C10.1,36.4,10.4,36.7,10.8,36.7z M10.8,24.1c0.3,0,0.6-0.3,0.6-0.6
	c0-0.3-0.3-0.6-0.6-0.6s-0.6,0.3-0.6,0.6C10.1,23.8,10.4,24.1,10.8,24.1z"/>
<path class="st0" d="M13.3,12.8v-2c0-0.2,0.1-0.3,0.2-0.4l7.6-7.6c-0.1-0.2-0.2-0.5-0.2-0.8c0-1,0.9-1.9,1.9-1.9
	c0.8,0,1.5,0.5,1.8,1.3h2.6c0.3,0,0.6,0.3,0.6,0.6v1.6l2.4,2.4c0.2-0.1,0.5-0.2,0.8-0.2c1,0,1.9,0.9,1.9,1.9c0,1-0.9,1.9-1.9,1.9
	c-1,0-1.9-0.9-1.9-1.9c0-0.3,0.1-0.6,0.2-0.8l-2.5-2.5c-0.1-0.1-0.2-0.3-0.2-0.4V2.5h-2c-0.3,0.7-1,1.3-1.8,1.3
	c-0.3,0-0.6-0.1-0.8-0.2L14.6,11v1.8c0.7,0.3,1.3,1,1.3,1.8c0,1-0.9,1.9-1.9,1.9c-1,0-1.9-0.9-1.9-1.9C12,13.7,12.6,13,13.3,12.8z
	 M31,8.2c0.3,0,0.6-0.3,0.6-0.6C31.7,7.3,31.4,7,31,7c-0.3,0-0.6,0.3-0.6,0.6C30.4,7.9,30.7,8.2,31,8.2z M22.8,2.5
	c0.3,0,0.6-0.3,0.6-0.6c0-0.3-0.3-0.6-0.6-0.6s-0.6,0.3-0.6,0.6C22.2,2.2,22.5,2.5,22.8,2.5z M13.9,15.2c0.3,0,0.6-0.3,0.6-0.6
	c0-0.3-0.3-0.6-0.6-0.6c-0.3,0-0.6,0.3-0.6,0.6C13.3,14.9,13.6,15.2,13.9,15.2z"/>
<path class="st0" d="M15.2,17.7c0.8,0,1.5,0.5,1.8,1.3h7.5l3.6-3.6c0.1-0.1,0.3-0.2,0.4-0.2h6.7l1.5-1.5V8.5l-4.9-4.9
	c-0.2,0.1-0.5,0.2-0.8,0.2c-1,0-1.9-0.9-1.9-1.9C29.1,0.9,30,0,31,0c1,0,1.9,0.9,1.9,1.9c0,0.3-0.1,0.6-0.2,0.8l5.1,5.1
	C37.9,7.9,38,8.1,38,8.2v5.7c0,0.2-0.1,0.3-0.2,0.4l-1.9,1.9c-0.1,0.1-0.3,0.2-0.4,0.2h-6.7l-3.6,3.6c-0.1,0.1-0.3,0.2-0.4,0.2H17
	c-0.3,0.7-1,1.3-1.8,1.3c-1,0-1.9-0.9-1.9-1.9C13.3,18.6,14.2,17.7,15.2,17.7z M31,1.3c-0.3,0-0.6,0.3-0.6,0.6
	c0,0.3,0.3,0.6,0.6,0.6c0.3,0,0.6-0.3,0.6-0.6C31.7,1.6,31.4,1.3,31,1.3z M15.2,20.3c0.3,0,0.6-0.3,0.6-0.6c0-0.3-0.3-0.6-0.6-0.6
	c-0.3,0-0.6,0.3-0.6,0.6C14.6,20,14.9,20.3,15.2,20.3z"/>
<path class="st0" d="M1.9,15.2c0.3,0,0.6,0.1,0.8,0.2L5.1,13V9.4c-0.7-0.3-1.3-1-1.3-1.8c0-1,0.9-1.9,1.9-1.9c1,0,1.9,0.9,1.9,1.9
	c0,0.8-0.5,1.5-1.3,1.8v3.9c0,0.2-0.1,0.3-0.2,0.4l-2.5,2.5c0.1,0.2,0.2,0.5,0.2,0.8c0,0.8-0.5,1.5-1.3,1.8v0.5l4.9,4.9
	c0.1,0.1,0.2,0.3,0.2,0.4v0.7c0.7,0.3,1.3,1,1.3,1.8S8.3,28.8,7.6,29v1.5c0.7,0.3,1.3,1,1.3,1.8c0,1-0.9,1.9-1.9,1.9
	c-1,0-1.9-0.9-1.9-1.9c0-0.8,0.5-1.5,1.3-1.8V29c-0.7-0.3-1.3-1-1.3-1.8s0.5-1.5,1.3-1.8V25l-4.9-4.9c-0.1-0.1-0.2-0.3-0.2-0.4v-0.7
	c-0.7-0.3-1.3-1-1.3-1.8C0,16.1,0.9,15.2,1.9,15.2z M5.7,8.2c0.3,0,0.6-0.3,0.6-0.6C6.3,7.3,6,7,5.7,7C5.4,7,5.1,7.3,5.1,7.6
	C5.1,7.9,5.4,8.2,5.7,8.2z M7,32.9c0.3,0,0.6-0.3,0.6-0.6c0-0.3-0.3-0.6-0.6-0.6c-0.3,0-0.6,0.3-0.6,0.6C6.3,32.6,6.6,32.9,7,32.9z
	 M7,27.9c0.3,0,0.6-0.3,0.6-0.6S7.3,26.6,7,26.6c-0.3,0-0.6,0.3-0.6,0.6S6.6,27.9,7,27.9z M1.9,17.7c0.3,0,0.6-0.3,0.6-0.6
	s-0.3-0.6-0.6-0.6c-0.3,0-0.6,0.3-0.6,0.6S1.6,17.7,1.9,17.7z"/>
</svg>
